<svg xmlns="http://www.w3.org/2000/svg" xmlns:xlink="http://www.w3.org/1999/xlink" width="1024" zoomAndPan="magnify" viewBox="0 0 768 767.999994" height="1024" preserveAspectRatio="xMidYMid meet" version="1.0"><path fill="#ffffff" d="M 230.398438 614.398438 C 187.96875 614.398438 153.984375 648.769531 153.984375 691.199219 C 153.984375 733.632812 187.96875 768 230.398438 768 C 272.832031 768 307.199219 733.632812 307.199219 691.199219 C 307.199219 648.769531 272.832031 614.398438 230.398438 614.398438 Z M 0 0 L 0 76.800781 L 76.800781 76.800781 L 214.847656 368.0625 L 163.007812 462.144531 C 157.054688 473.28125 153.601562 485.761719 153.601562 499.199219 C 153.601562 541.632812 187.96875 576 230.398438 576 L 691.199219 576 L 691.199219 499.199219 L 246.71875 499.199219 C 241.34375 499.199219 237.121094 494.976562 237.121094 489.601562 C 237.121094 487.871094 237.503906 486.335938 238.273438 484.992188 L 272.640625 422.398438 L 558.71875 422.398438 C 587.519531 422.398438 612.671875 406.464844 625.921875 382.847656 L 763.199219 133.632812 C 766.273438 128.257812 768 121.921875 768 115.199219 C 768 93.886719 750.71875 76.800781 729.601562 76.800781 L 161.855469 76.800781 L 125.375 0 Z M 614.398438 614.398438 C 571.96875 614.398438 537.984375 648.769531 537.984375 691.199219 C 537.984375 733.632812 571.96875 768 614.398438 768 C 656.832031 768 691.199219 733.632812 691.199219 691.199219 C 691.199219 648.769531 656.832031 614.398438 614.398438 614.398438 Z M 614.398438 614.398438 " fill-opacity="1" fill-rule="nonzero"/></svg>