<svg xmlns="http://www.w3.org/2000/svg" xmlns:xlink="http://www.w3.org/1999/xlink" width="1024" zoomAndPan="magnify" viewBox="0 0 768 767.999994" height="1024" preserveAspectRatio="xMidYMid meet" version="1.0"><defs><clipPath id="387187742e"><path d="M 0 13.441406 L 516 13.441406 L 516 390 L 0 390 Z M 0 13.441406 " clip-rule="nonzero"/></clipPath></defs><g clip-path="url(#387187742e)"><path fill="#f2bf91" d="M 257.835938 367.15625 C 128.152344 367.15625 22.5625 307.601562 22.5625 234.335938 C 22.65625 233.582031 22.65625 232.832031 22.5625 232.078125 C 62.632812 286.21875 153.148438 324.65625 258.195312 324.65625 C 270.46875 324.65625 282.832031 324.117188 295.015625 323.03125 C 295.738281 322.949219 296.445312 322.800781 297.136719 322.578125 C 297.828125 322.359375 298.496094 322.074219 299.132812 321.726562 C 299.769531 321.378906 300.367188 320.972656 300.925781 320.511719 C 301.484375 320.046875 301.996094 319.535156 302.457031 318.972656 C 302.914062 318.410156 303.316406 317.8125 303.660156 317.171875 C 304.007812 316.53125 304.285156 315.863281 304.5 315.171875 C 304.714844 314.476562 304.863281 313.769531 304.941406 313.046875 C 305.019531 312.328125 305.027344 311.605469 304.96875 310.878906 C 304.90625 310.15625 304.777344 309.445312 304.578125 308.746094 C 304.378906 308.046875 304.117188 307.375 303.789062 306.726562 C 303.460938 306.078125 303.074219 305.46875 302.625 304.898438 C 302.179688 304.324219 301.683594 303.800781 301.136719 303.320312 C 300.589844 302.84375 300 302.425781 299.371094 302.0625 C 298.742188 301.699219 298.085938 301.398438 297.398438 301.164062 C 296.710938 300.925781 296.007812 300.757812 295.289062 300.65625 C 294.570312 300.558594 293.847656 300.527344 293.121094 300.566406 C 281.570312 301.558594 269.835938 302.097656 258.195312 302.097656 C 128.152344 302.097656 22.5625 242.457031 22.5625 169.1875 C 22.5625 95.917969 128.152344 36.363281 257.835938 36.363281 C 387.519531 36.363281 493.109375 95.648438 493.109375 169.1875 C 493.0625 175.714844 492.222656 182.140625 490.589844 188.460938 C 488.957031 194.78125 486.578125 200.808594 483.453125 206.542969 C 483.105469 207.199219 482.824219 207.878906 482.609375 208.589844 C 482.398438 209.300781 482.257812 210.023438 482.1875 210.761719 C 482.117188 211.5 482.117188 212.238281 482.191406 212.976562 C 482.269531 213.710938 482.414062 214.4375 482.632812 215.144531 C 482.851562 215.851562 483.132812 216.535156 483.484375 217.1875 C 483.839844 217.839844 484.25 218.449219 484.722656 219.023438 C 485.195312 219.59375 485.71875 220.113281 486.292969 220.582031 C 486.867188 221.046875 487.484375 221.457031 488.140625 221.804688 C 488.792969 222.148438 489.476562 222.429688 490.1875 222.640625 C 490.898438 222.855469 491.621094 222.996094 492.359375 223.0625 C 493.097656 223.132812 493.835938 223.128906 494.574219 223.054688 C 495.3125 222.980469 496.035156 222.832031 496.742188 222.613281 C 497.449219 222.394531 498.132812 222.109375 498.785156 221.757812 C 499.4375 221.40625 500.046875 220.992188 500.617188 220.519531 C 501.1875 220.046875 501.707031 219.523438 502.175781 218.945312 C 502.644531 218.371094 503.050781 217.753906 503.394531 217.101562 C 507.378906 209.738281 510.40625 202.003906 512.484375 193.898438 C 514.558594 185.792969 515.621094 177.554688 515.671875 169.1875 C 515.671875 83.464844 399.972656 13.804688 257.835938 13.804688 C 115.695312 13.804688 0.0898438 83.464844 0.0898438 169.1875 C 0.144531 174.125 0.558594 179.039062 1.324219 183.917969 C 2.085938 188.800781 3.199219 193.601562 4.660156 198.320312 C 6.117188 203.039062 7.910156 207.632812 10.03125 212.09375 C 12.152344 216.554688 14.585938 220.839844 17.328125 224.949219 C 16.503906 224.382812 15.617188 223.941406 14.671875 223.617188 C 13.726562 223.292969 12.753906 223.097656 11.753906 223.039062 C 10.753906 222.980469 9.765625 223.054688 8.789062 223.265625 C 7.8125 223.476562 6.878906 223.8125 5.992188 224.277344 C 5.105469 224.738281 4.300781 225.3125 3.570312 226 C 2.839844 226.683594 2.214844 227.453125 1.695312 228.304688 C 1.175781 229.160156 0.777344 230.066406 0.507812 231.03125 C 0.234375 231.992188 0.09375 232.972656 0.0898438 233.972656 C 0.0898438 319.695312 115.695312 389.355469 257.835938 389.355469 C 258.574219 389.355469 259.308594 389.28125 260.035156 389.136719 C 260.761719 388.992188 261.46875 388.777344 262.152344 388.496094 C 262.835938 388.210938 263.488281 387.863281 264.101562 387.453125 C 264.71875 387.042969 265.289062 386.574219 265.8125 386.050781 C 266.335938 385.527344 266.804688 384.957031 267.214844 384.339844 C 267.625 383.726562 267.972656 383.074219 268.257812 382.390625 C 268.539062 381.707031 268.753906 381 268.898438 380.273438 C 269.042969 379.550781 269.117188 378.816406 269.117188 378.074219 C 269.117188 377.335938 269.042969 376.601562 268.898438 375.875 C 268.753906 375.148438 268.539062 374.441406 268.257812 373.757812 C 267.972656 373.074219 267.625 372.425781 267.214844 371.808594 C 266.804688 371.191406 266.335938 370.625 265.8125 370.097656 C 265.289062 369.574219 264.71875 369.109375 264.101562 368.695312 C 263.488281 368.285156 262.835938 367.9375 262.152344 367.65625 C 261.46875 367.371094 260.761719 367.15625 260.035156 367.011719 C 259.308594 366.867188 258.574219 366.796875 257.835938 366.796875 Z M 257.835938 367.15625 " fill-opacity="1" fill-rule="nonzero"/></g><path fill="#f2bf91" d="M 238.070312 438.53125 C 117.230469 433.027344 22.5625 374.828125 22.5625 306.339844 C 22.5625 305.597656 22.488281 304.867188 22.34375 304.140625 C 22.199219 303.414062 21.988281 302.707031 21.703125 302.023438 C 21.417969 301.339844 21.070312 300.691406 20.660156 300.074219 C 20.25 299.457031 19.78125 298.886719 19.257812 298.363281 C 18.734375 297.839844 18.164062 297.375 17.546875 296.960938 C 16.933594 296.550781 16.28125 296.203125 15.597656 295.917969 C 14.914062 295.636719 14.207031 295.421875 13.480469 295.277344 C 12.753906 295.132812 12.023438 295.0625 11.28125 295.0625 C 10.539062 295.0625 9.804688 295.132812 9.078125 295.277344 C 8.355469 295.421875 7.648438 295.636719 6.964844 295.917969 C 6.28125 296.203125 5.628906 296.550781 5.011719 296.960938 C 4.398438 297.375 3.828125 297.839844 3.304688 298.363281 C 2.78125 298.886719 2.3125 299.457031 1.902344 300.074219 C 1.488281 300.691406 1.140625 301.339844 0.859375 302.023438 C 0.574219 302.707031 0.359375 303.414062 0.214844 304.140625 C 0.0703125 304.867188 0 305.597656 0 306.339844 C 0 388.269531 101.796875 454.863281 236.898438 461.359375 L 237.4375 461.359375 C 238.179688 461.375 238.914062 461.320312 239.644531 461.195312 C 240.375 461.066406 241.085938 460.871094 241.773438 460.601562 C 242.464844 460.335938 243.125 460.003906 243.75 459.605469 C 244.375 459.210938 244.953125 458.757812 245.492188 458.246094 C 246.027344 457.734375 246.507812 457.175781 246.933594 456.570312 C 247.359375 455.964844 247.722656 455.324219 248.023438 454.644531 C 248.320312 453.96875 248.554688 453.269531 248.714844 452.546875 C 248.875 451.824219 248.964844 451.089844 248.984375 450.351562 C 249 449.609375 248.945312 448.875 248.820312 448.144531 C 248.691406 447.417969 248.496094 446.707031 248.230469 446.015625 C 247.960938 445.324219 247.632812 444.667969 247.234375 444.042969 C 246.839844 443.414062 246.382812 442.835938 245.875 442.296875 C 245.363281 441.761719 244.804688 441.28125 244.199219 440.855469 C 243.59375 440.429688 242.953125 440.066406 242.273438 439.765625 C 241.597656 439.464844 240.898438 439.234375 240.175781 439.070312 C 239.453125 438.910156 238.722656 438.820312 237.980469 438.800781 Z M 238.070312 438.53125 " fill-opacity="1" fill-rule="nonzero"/><path fill="#f2bf91" d="M 236.628906 510.714844 C 116.597656 504.671875 22.5625 446.472656 22.5625 378.4375 C 22.5625 377.695312 22.488281 376.960938 22.34375 376.234375 C 22.199219 375.507812 21.988281 374.804688 21.703125 374.121094 C 21.417969 373.433594 21.070312 372.785156 20.660156 372.167969 C 20.25 371.554688 19.78125 370.984375 19.257812 370.460938 C 18.734375 369.9375 18.164062 369.46875 17.546875 369.058594 C 16.933594 368.644531 16.28125 368.296875 15.597656 368.015625 C 14.914062 367.730469 14.207031 367.519531 13.480469 367.375 C 12.753906 367.230469 12.023438 367.15625 11.28125 367.15625 C 10.539062 367.15625 9.804688 367.230469 9.078125 367.375 C 8.355469 367.519531 7.648438 367.730469 6.964844 368.015625 C 6.28125 368.296875 5.628906 368.644531 5.011719 369.058594 C 4.398438 369.46875 3.828125 369.9375 3.304688 370.460938 C 2.78125 370.984375 2.3125 371.554688 1.902344 372.167969 C 1.488281 372.785156 1.140625 373.433594 0.859375 374.121094 C 0.574219 374.804688 0.359375 375.507812 0.214844 376.234375 C 0.0703125 376.960938 0 377.695312 0 378.4375 C 0 459.644531 101.167969 526.417969 235.363281 533.363281 L 235.90625 533.363281 C 236.644531 533.382812 237.378906 533.332031 238.109375 533.207031 C 238.839844 533.082031 239.550781 532.886719 240.242188 532.621094 C 240.933594 532.355469 241.589844 532.027344 242.21875 531.632812 C 242.84375 531.238281 243.425781 530.789062 243.964844 530.277344 C 244.5 529.769531 244.984375 529.214844 245.410156 528.609375 C 245.839844 528.003906 246.203125 527.367188 246.507812 526.691406 C 246.808594 526.015625 247.042969 525.316406 247.207031 524.59375 C 247.371094 523.871094 247.464844 523.140625 247.484375 522.402344 C 247.503906 521.660156 247.453125 520.925781 247.328125 520.195312 C 247.207031 519.46875 247.011719 518.757812 246.746094 518.066406 C 246.484375 517.375 246.15625 516.714844 245.761719 516.085938 C 245.367188 515.460938 244.917969 514.878906 244.410156 514.339844 C 243.902344 513.800781 243.34375 513.316406 242.742188 512.890625 C 242.140625 512.460938 241.5 512.09375 240.824219 511.792969 C 240.148438 511.488281 239.449219 511.253906 238.730469 511.089844 C 238.007812 510.921875 237.277344 510.828125 236.535156 510.808594 Z M 236.628906 510.714844 " fill-opacity="1" fill-rule="nonzero"/><path fill="#f2bf91" d="M 534.800781 591.925781 L 538.863281 591.925781 C 539.902344 591.972656 540.941406 591.972656 541.980469 591.917969 C 543.019531 591.867188 544.054688 591.761719 545.082031 591.609375 C 546.113281 591.457031 547.132812 591.25 548.140625 591 C 549.148438 590.746094 550.144531 590.441406 551.125 590.09375 C 552.105469 589.742188 553.0625 589.34375 554.003906 588.898438 C 554.945312 588.453125 555.863281 587.964844 556.753906 587.429688 C 557.648438 586.898438 558.511719 586.320312 559.351562 585.703125 C 560.1875 585.082031 560.992188 584.425781 561.761719 583.730469 C 562.535156 583.03125 563.273438 582.300781 563.972656 581.53125 C 564.675781 580.761719 565.335938 579.960938 565.957031 579.125 C 566.582031 578.292969 567.160156 577.429688 567.699219 576.539062 C 568.238281 575.648438 568.730469 574.734375 569.179688 573.796875 C 569.628906 572.859375 570.03125 571.898438 570.386719 570.921875 C 570.742188 569.945312 571.046875 568.949219 571.304688 567.941406 C 571.5625 566.933594 571.773438 565.917969 571.929688 564.890625 C 572.089844 563.859375 572.195312 562.828125 572.253906 561.789062 L 572.253906 533.183594 C 572.253906 526.238281 565.125 517.933594 552.671875 510.445312 L 534.621094 504.128906 Z M 534.800781 591.925781 " fill-opacity="1" fill-rule="nonzero"/><path fill="#f2bf91" d="M 520.8125 241.460938 C 516.773438 241.460938 512.734375 241.5625 508.699219 241.761719 C 504.660156 241.957031 500.632812 242.253906 496.609375 242.652344 C 492.589844 243.046875 488.578125 243.542969 484.582031 244.136719 C 480.582031 244.726562 476.601562 245.417969 472.640625 246.207031 C 468.675781 246.996094 464.734375 247.878906 460.8125 248.863281 C 456.894531 249.84375 453 250.921875 449.132812 252.09375 C 445.265625 253.269531 441.429688 254.535156 437.625 255.898438 C 433.820312 257.257812 430.050781 258.710938 426.316406 260.257812 C 422.582031 261.804688 418.890625 263.441406 415.238281 265.167969 C 411.582031 266.898438 407.976562 268.714844 404.410156 270.617188 C 400.847656 272.523438 397.332031 274.515625 393.867188 276.589844 C 390.398438 278.667969 386.984375 280.832031 383.625 283.074219 C 380.265625 285.320312 376.964844 287.644531 373.71875 290.054688 C 370.472656 292.460938 367.285156 294.945312 364.164062 297.507812 C 361.039062 300.074219 357.980469 302.710938 354.984375 305.425781 C 351.992188 308.140625 349.066406 310.925781 346.207031 313.78125 C 343.351562 316.640625 340.566406 319.566406 337.851562 322.558594 C 335.136719 325.554688 332.5 328.613281 329.933594 331.734375 C 327.371094 334.859375 324.886719 338.042969 322.480469 341.289062 C 320.070312 344.535156 317.746094 347.835938 315.5 351.199219 C 313.257812 354.558594 311.09375 357.96875 309.019531 361.4375 C 306.941406 364.902344 304.949219 368.417969 303.042969 371.980469 C 301.140625 375.542969 299.324219 379.152344 297.597656 382.804688 C 295.867188 386.457031 294.230469 390.152344 292.683594 393.882812 C 291.140625 397.617188 289.6875 401.386719 288.324219 405.191406 C 286.964844 408.996094 285.695312 412.832031 284.523438 416.699219 C 283.351562 420.566406 282.273438 424.457031 281.292969 428.378906 C 280.3125 432.296875 279.425781 436.238281 278.636719 440.203125 C 277.851562 444.164062 277.160156 448.144531 276.566406 452.140625 C 275.976562 456.140625 275.480469 460.148438 275.085938 464.167969 C 274.6875 468.191406 274.394531 472.21875 274.195312 476.253906 C 273.996094 480.289062 273.898438 484.328125 273.898438 488.367188 C 273.898438 492.410156 274 496.449219 274.199219 500.484375 C 274.398438 504.519531 274.695312 508.546875 275.089844 512.570312 C 275.488281 516.589844 275.984375 520.597656 276.578125 524.597656 C 277.167969 528.59375 277.859375 532.574219 278.648438 536.535156 C 279.4375 540.5 280.324219 544.4375 281.308594 548.359375 C 282.289062 552.277344 283.367188 556.171875 284.542969 560.039062 C 285.714844 563.902344 286.984375 567.738281 288.34375 571.542969 C 289.707031 575.347656 291.160156 579.117188 292.707031 582.847656 C 294.253906 586.582031 295.894531 590.273438 297.621094 593.925781 C 299.351562 597.578125 301.167969 601.1875 303.074219 604.75 C 304.980469 608.3125 306.96875 611.828125 309.046875 615.292969 C 311.125 618.757812 313.289062 622.171875 315.535156 625.53125 C 317.78125 628.890625 320.105469 632.191406 322.515625 635.4375 C 324.921875 638.683594 327.410156 641.867188 329.972656 644.988281 C 332.539062 648.113281 335.175781 651.171875 337.890625 654.164062 C 340.605469 657.15625 343.390625 660.082031 346.25 662.9375 C 349.109375 665.796875 352.035156 668.582031 355.03125 671.292969 C 358.023438 674.007812 361.085938 676.644531 364.210938 679.207031 C 367.332031 681.769531 370.519531 684.253906 373.765625 686.660156 C 377.011719 689.066406 380.316406 691.390625 383.675781 693.636719 C 387.035156 695.878906 390.449219 698.039062 393.917969 700.117188 C 397.382812 702.195312 400.898438 704.183594 404.464844 706.089844 C 408.027344 707.992188 411.636719 709.808594 415.289062 711.535156 C 418.945312 713.261719 422.636719 714.898438 426.371094 716.441406 C 430.105469 717.988281 433.875 719.441406 437.679688 720.800781 C 441.488281 722.164062 445.324219 723.429688 449.191406 724.601562 C 453.058594 725.773438 456.953125 726.847656 460.871094 727.832031 C 464.792969 728.8125 468.734375 729.695312 472.699219 730.484375 C 476.664062 731.269531 480.644531 731.960938 484.640625 732.550781 C 488.636719 733.144531 492.648438 733.636719 496.671875 734.03125 C 500.691406 734.425781 504.722656 734.722656 508.757812 734.921875 C 512.792969 735.117188 516.832031 735.214844 520.875 735.214844 C 524.914062 735.214844 528.953125 735.113281 532.992188 734.914062 C 537.027344 734.714844 541.054688 734.417969 545.078125 734.019531 C 549.097656 733.625 553.109375 733.128906 557.105469 732.535156 C 561.105469 731.941406 565.085938 731.25 569.046875 730.457031 C 573.011719 729.667969 576.953125 728.785156 580.871094 727.800781 C 584.792969 726.816406 588.6875 725.738281 592.550781 724.566406 C 596.417969 723.390625 600.253906 722.125 604.058594 720.761719 C 607.863281 719.398438 611.632812 717.945312 615.367188 716.398438 C 619.101562 714.847656 622.792969 713.210938 626.445312 711.484375 C 630.097656 709.753906 633.707031 707.9375 637.269531 706.03125 C 640.835938 704.125 644.347656 702.132812 647.8125 700.054688 C 651.28125 697.976562 654.691406 695.816406 658.050781 693.570312 C 661.410156 691.324219 664.714844 688.996094 667.960938 686.589844 C 671.203125 684.179688 674.390625 681.695312 677.511719 679.128906 C 680.636719 676.566406 683.695312 673.925781 686.6875 671.210938 C 689.679688 668.496094 692.605469 665.710938 695.460938 662.855469 C 698.320312 659.996094 701.105469 657.070312 703.816406 654.074219 C 706.53125 651.078125 709.167969 648.019531 711.730469 644.894531 C 714.292969 641.773438 716.777344 638.585938 719.183594 635.339844 C 721.589844 632.09375 723.917969 628.789062 726.160156 625.429688 C 728.40625 622.070312 730.566406 618.65625 732.640625 615.191406 C 734.71875 611.722656 736.707031 608.207031 738.613281 604.644531 C 740.515625 601.082031 742.332031 597.472656 744.058594 593.816406 C 745.785156 590.164062 747.421875 586.472656 748.964844 582.738281 C 750.511719 579.003906 751.964844 575.234375 753.324219 571.429688 C 754.683594 567.625 755.949219 563.789062 757.121094 559.921875 C 758.292969 556.054688 759.371094 552.160156 760.351562 548.242188 C 761.332031 544.320312 762.214844 540.378906 763 536.417969 C 763.789062 532.453125 764.476562 528.472656 765.070312 524.476562 C 765.660156 520.480469 766.15625 516.46875 766.550781 512.449219 C 766.945312 508.429688 767.238281 504.398438 767.4375 500.363281 C 767.632812 496.328125 767.730469 492.289062 767.730469 488.25 C 767.726562 484.210938 767.621094 480.175781 767.417969 476.140625 C 767.214844 472.105469 766.914062 468.082031 766.515625 464.0625 C 766.117188 460.042969 765.617188 456.039062 765.019531 452.042969 C 764.425781 448.046875 763.730469 444.070312 762.941406 440.109375 C 762.148438 436.152344 761.261719 432.210938 760.277344 428.296875 C 759.289062 424.378906 758.210938 420.488281 757.035156 416.625 C 755.859375 412.761719 754.589844 408.929688 753.226562 405.125 C 751.863281 401.324219 750.40625 397.558594 748.859375 393.828125 C 747.3125 390.097656 745.671875 386.410156 743.945312 382.757812 C 742.214844 379.109375 740.398438 375.503906 738.492188 371.945312 C 736.585938 368.382812 734.59375 364.871094 732.515625 361.40625 C 730.4375 357.945312 728.273438 354.535156 726.03125 351.179688 C 723.785156 347.820312 721.457031 344.519531 719.050781 341.277344 C 716.644531 338.035156 714.15625 334.851562 711.59375 331.730469 C 709.03125 328.609375 706.394531 325.554688 703.679688 322.5625 C 700.964844 319.570312 698.179688 316.648438 695.324219 313.792969 C 692.46875 310.9375 689.542969 308.152344 686.550781 305.441406 C 683.558594 302.730469 680.5 300.09375 677.375 297.53125 C 674.253906 294.96875 671.070312 292.484375 667.824219 290.078125 C 664.582031 287.675781 661.28125 285.347656 657.921875 283.105469 C 654.5625 280.863281 651.152344 278.703125 647.6875 276.625 C 644.222656 274.546875 640.710938 272.558594 637.148438 270.652344 C 633.585938 268.75 629.980469 266.933594 626.328125 265.207031 C 622.679688 263.476562 618.988281 261.839844 615.253906 260.292969 C 611.523438 258.75 607.757812 257.292969 603.953125 255.933594 C 600.152344 254.570312 596.320312 253.300781 592.453125 252.128906 C 588.589844 250.953125 584.699219 249.875 580.78125 248.894531 C 576.863281 247.910156 572.921875 247.023438 568.960938 246.234375 C 565 245.445312 561.023438 244.753906 557.027344 244.15625 C 553.03125 243.5625 549.023438 243.066406 545.003906 242.667969 C 540.984375 242.269531 536.957031 241.96875 532.925781 241.769531 C 528.890625 241.566406 524.851562 241.464844 520.8125 241.460938 Z M 520.8125 686.761719 C 517.566406 686.761719 514.316406 686.679688 511.070312 686.519531 C 507.828125 686.363281 504.585938 686.121094 501.351562 685.804688 C 498.121094 685.484375 494.894531 685.089844 491.683594 684.613281 C 488.46875 684.132812 485.265625 683.578125 482.082031 682.945312 C 478.894531 682.3125 475.722656 681.601562 472.570312 680.8125 C 469.421875 680.023438 466.289062 679.15625 463.179688 678.210938 C 460.070312 677.269531 456.988281 676.25 453.925781 675.15625 C 450.867188 674.0625 447.835938 672.894531 444.835938 671.648438 C 441.832031 670.40625 438.863281 669.089844 435.925781 667.699219 C 432.988281 666.3125 430.085938 664.851562 427.222656 663.320312 C 424.355469 661.789062 421.53125 660.1875 418.742188 658.519531 C 415.957031 656.847656 413.210938 655.109375 410.507812 653.304688 C 407.808594 651.5 405.152344 649.628906 402.542969 647.695312 C 399.933594 645.757812 397.371094 643.761719 394.859375 641.699219 C 392.347656 639.640625 389.886719 637.519531 387.480469 635.335938 C 385.074219 633.15625 382.71875 630.914062 380.421875 628.617188 C 378.125 626.320312 375.886719 623.96875 373.703125 621.5625 C 371.519531 619.152344 369.398438 616.695312 367.339844 614.183594 C 365.277344 611.671875 363.277344 609.109375 361.34375 606.5 C 359.40625 603.890625 357.535156 601.238281 355.730469 598.535156 C 353.925781 595.835938 352.1875 593.089844 350.519531 590.304688 C 348.847656 587.515625 347.246094 584.691406 345.714844 581.828125 C 344.183594 578.960938 342.722656 576.058594 341.332031 573.125 C 339.945312 570.1875 338.628906 567.21875 337.382812 564.214844 C 336.140625 561.214844 334.972656 558.183594 333.878906 555.125 C 332.78125 552.066406 331.761719 548.984375 330.820312 545.875 C 329.878906 542.765625 329.011719 539.632812 328.222656 536.484375 C 327.433594 533.332031 326.71875 530.164062 326.085938 526.976562 C 325.453125 523.789062 324.898438 520.589844 324.421875 517.375 C 323.945312 514.164062 323.546875 510.9375 323.226562 507.707031 C 322.910156 504.472656 322.667969 501.234375 322.511719 497.988281 C 322.351562 494.746094 322.269531 491.496094 322.269531 488.25 C 322.269531 485 322.351562 481.753906 322.511719 478.507812 C 322.667969 475.261719 322.910156 472.023438 323.226562 468.792969 C 323.546875 465.558594 323.945312 462.335938 324.421875 459.121094 C 324.898438 455.90625 325.453125 452.707031 326.085938 449.519531 C 326.71875 446.335938 327.433594 443.164062 328.222656 440.015625 C 329.011719 436.863281 329.878906 433.734375 330.820312 430.625 C 331.761719 427.515625 332.78125 424.429688 333.878906 421.371094 C 334.972656 418.3125 336.140625 415.28125 337.382812 412.28125 C 338.628906 409.28125 339.945312 406.3125 341.332031 403.375 C 342.722656 400.4375 344.183594 397.535156 345.714844 394.671875 C 347.246094 391.804688 348.847656 388.980469 350.519531 386.191406 C 352.1875 383.40625 353.925781 380.664062 355.730469 377.960938 C 357.535156 375.261719 359.40625 372.605469 361.34375 369.996094 C 363.277344 367.386719 365.277344 364.824219 367.339844 362.3125 C 369.398438 359.804688 371.519531 357.34375 373.703125 354.9375 C 375.886719 352.53125 378.125 350.175781 380.421875 347.878906 C 382.71875 345.582031 385.074219 343.34375 387.480469 341.160156 C 389.886719 338.980469 392.347656 336.859375 394.859375 334.796875 C 397.371094 332.734375 399.933594 330.738281 402.542969 328.804688 C 405.152344 326.867188 407.808594 324.996094 410.507812 323.191406 C 413.210938 321.386719 415.957031 319.648438 418.742188 317.980469 C 421.53125 316.308594 424.355469 314.707031 427.222656 313.175781 C 430.085938 311.644531 432.988281 310.183594 435.925781 308.796875 C 438.863281 307.40625 441.832031 306.089844 444.835938 304.847656 C 447.835938 303.605469 450.867188 302.4375 453.925781 301.339844 C 456.988281 300.246094 460.070312 299.226562 463.179688 298.285156 C 466.289062 297.34375 469.421875 296.476562 472.570312 295.6875 C 475.722656 294.898438 478.894531 294.183594 482.082031 293.550781 C 485.265625 292.917969 488.46875 292.363281 491.683594 291.886719 C 494.894531 291.410156 498.121094 291.011719 501.355469 290.691406 C 504.585938 290.375 507.828125 290.136719 511.070312 289.976562 C 514.316406 289.816406 517.566406 289.738281 520.8125 289.738281 C 524.0625 289.738281 527.3125 289.816406 530.554688 289.976562 C 533.800781 290.136719 537.042969 290.375 540.273438 290.691406 C 543.507812 291.011719 546.730469 291.410156 549.945312 291.886719 C 553.160156 292.363281 556.359375 292.917969 559.546875 293.550781 C 562.734375 294.183594 565.902344 294.898438 569.054688 295.6875 C 572.207031 296.476562 575.339844 297.34375 578.449219 298.285156 C 581.558594 299.226562 584.640625 300.246094 587.699219 301.339844 C 590.761719 302.4375 593.792969 303.605469 596.792969 304.847656 C 599.796875 306.089844 602.765625 307.40625 605.703125 308.796875 C 608.640625 310.183594 611.539062 311.644531 614.40625 313.175781 C 617.273438 314.707031 620.097656 316.308594 622.886719 317.980469 C 625.671875 319.648438 628.417969 321.386719 631.117188 323.191406 C 633.820312 324.996094 636.476562 326.867188 639.085938 328.804688 C 641.695312 330.738281 644.257812 332.734375 646.769531 334.796875 C 649.28125 336.859375 651.738281 338.980469 654.148438 341.160156 C 656.554688 343.34375 658.90625 345.582031 661.203125 347.878906 C 663.503906 350.175781 665.742188 352.53125 667.925781 354.9375 C 670.105469 357.34375 672.226562 359.804688 674.289062 362.3125 C 676.351562 364.824219 678.347656 367.386719 680.285156 369.996094 C 682.222656 372.605469 684.089844 375.261719 685.894531 377.960938 C 687.703125 380.664062 689.4375 383.40625 691.109375 386.195312 C 692.78125 388.980469 694.382812 391.804688 695.914062 394.671875 C 697.445312 397.535156 698.90625 400.4375 700.292969 403.375 C 701.683594 406.3125 703 409.28125 704.242188 412.28125 C 705.488281 415.28125 706.65625 418.3125 707.75 421.371094 C 708.84375 424.429688 709.863281 427.515625 710.808594 430.625 C 711.75 433.734375 712.617188 436.863281 713.40625 440.015625 C 714.195312 443.164062 714.90625 446.335938 715.542969 449.519531 C 716.175781 452.707031 716.730469 455.90625 717.207031 459.121094 C 717.683594 462.335938 718.082031 465.558594 718.402344 468.792969 C 718.71875 472.023438 718.957031 475.261719 719.117188 478.507812 C 719.277344 481.753906 719.355469 485 719.355469 488.25 C 719.355469 491.496094 719.277344 494.746094 719.117188 497.988281 C 718.957031 501.234375 718.71875 504.472656 718.402344 507.707031 C 718.082031 510.9375 717.683594 514.164062 717.207031 517.375 C 716.730469 520.589844 716.175781 523.789062 715.542969 526.976562 C 714.90625 530.164062 714.195312 533.332031 713.40625 536.484375 C 712.617188 539.632812 711.75 542.765625 710.808594 545.875 C 709.863281 548.980469 708.84375 552.066406 707.75 555.125 C 706.65625 558.183594 705.488281 561.214844 704.242188 564.214844 C 703 567.21875 701.683594 570.1875 700.292969 573.125 C 698.90625 576.058594 697.445312 578.960938 695.914062 581.828125 C 694.382812 584.691406 692.78125 587.515625 691.109375 590.304688 C 689.4375 593.089844 687.703125 595.835938 685.894531 598.535156 C 684.089844 601.238281 682.222656 603.890625 680.285156 606.5 C 678.347656 609.109375 676.351562 611.671875 674.289062 614.183594 C 672.226562 616.695312 670.105469 619.152344 667.925781 621.5625 C 665.742188 623.96875 663.503906 626.320312 661.203125 628.617188 C 658.90625 630.914062 656.554688 633.15625 654.148438 635.335938 C 651.738281 637.519531 649.28125 639.640625 646.769531 641.699219 C 644.257812 643.761719 641.695312 645.757812 639.085938 647.695312 C 636.476562 649.628906 633.820312 651.5 631.117188 653.304688 C 628.417969 655.109375 625.671875 656.847656 622.886719 658.519531 C 620.097656 660.1875 617.273438 661.789062 614.40625 663.320312 C 611.539062 664.851562 608.640625 666.3125 605.703125 667.699219 C 602.765625 669.089844 599.796875 670.40625 596.792969 671.648438 C 593.792969 672.894531 590.761719 674.0625 587.699219 675.15625 C 584.640625 676.25 581.558594 677.269531 578.449219 678.210938 C 575.339844 679.15625 572.207031 680.023438 569.054688 680.8125 C 565.902344 681.601562 562.734375 682.3125 559.546875 682.945312 C 556.359375 683.578125 553.160156 684.136719 549.945312 684.613281 C 546.730469 685.089844 543.507812 685.484375 540.273438 685.804688 C 537.042969 686.121094 533.800781 686.363281 530.554688 686.519531 C 527.3125 686.679688 524.0625 686.761719 520.8125 686.761719 Z M 520.8125 686.761719 " fill-opacity="1" fill-rule="nonzero"/><path fill="#f2bf91" d="M 469.375 413.355469 L 469.375 441.507812 C 469.375 450.53125 479.480469 458.292969 488.234375 463.523438 L 512.242188 472.097656 L 512.242188 383.21875 L 503.214844 383.21875 C 502.167969 383.15625 501.121094 383.148438 500.070312 383.191406 C 499.023438 383.230469 497.976562 383.324219 496.9375 383.46875 C 495.898438 383.613281 494.867188 383.8125 493.847656 384.054688 C 492.828125 384.300781 491.824219 384.597656 490.832031 384.941406 C 489.839844 385.289062 488.867188 385.679688 487.914062 386.121094 C 486.960938 386.5625 486.035156 387.046875 485.128906 387.578125 C 484.222656 388.109375 483.347656 388.683594 482.5 389.304688 C 481.648438 389.921875 480.832031 390.578125 480.050781 391.277344 C 479.265625 391.972656 478.519531 392.710938 477.804688 393.480469 C 477.09375 394.253906 476.421875 395.054688 475.789062 395.894531 C 475.15625 396.730469 474.566406 397.597656 474.019531 398.492188 C 473.472656 399.390625 472.972656 400.308594 472.515625 401.253906 C 472.058594 402.199219 471.648438 403.164062 471.285156 404.148438 C 470.925781 405.132812 470.613281 406.132812 470.347656 407.148438 C 470.085938 408.164062 469.871094 409.191406 469.707031 410.230469 C 469.546875 411.265625 469.433594 412.308594 469.375 413.355469 Z M 469.375 413.355469 " fill-opacity="1" fill-rule="nonzero"/><path fill="#f2bf91" d="M 520.8125 312.207031 C 517.933594 312.207031 515.054688 312.277344 512.179688 312.417969 C 509.300781 312.558594 506.429688 312.769531 503.566406 313.050781 C 500.699219 313.335938 497.839844 313.6875 494.992188 314.109375 C 492.144531 314.53125 489.304688 315.023438 486.480469 315.585938 C 483.65625 316.148438 480.847656 316.777344 478.054688 317.476562 C 475.261719 318.179688 472.484375 318.945312 469.730469 319.78125 C 466.972656 320.617188 464.238281 321.519531 461.527344 322.492188 C 458.816406 323.460938 456.128906 324.496094 453.46875 325.597656 C 450.808594 326.699219 448.175781 327.867188 445.574219 329.097656 C 442.96875 330.328125 440.398438 331.625 437.855469 332.980469 C 435.316406 334.339844 432.8125 335.757812 430.339844 337.238281 C 427.871094 338.71875 425.4375 340.257812 423.042969 341.859375 C 420.648438 343.457031 418.296875 345.117188 415.980469 346.832031 C 413.667969 348.546875 411.398438 350.316406 409.171875 352.144531 C 406.945312 353.972656 404.765625 355.851562 402.632812 357.785156 C 400.5 359.71875 398.414062 361.703125 396.375 363.742188 C 394.339844 365.777344 392.355469 367.863281 390.421875 369.996094 C 388.488281 372.128906 386.605469 374.308594 384.777344 376.535156 C 382.953125 378.761719 381.179688 381.03125 379.464844 383.34375 C 377.75 385.65625 376.089844 388.007812 374.492188 390.402344 C 372.890625 392.796875 371.351562 395.230469 369.871094 397.699219 C 368.390625 400.171875 366.96875 402.675781 365.613281 405.214844 C 364.253906 407.753906 362.960938 410.324219 361.730469 412.929688 C 360.496094 415.53125 359.332031 418.164062 358.230469 420.824219 C 357.125 423.484375 356.089844 426.171875 355.121094 428.882812 C 354.148438 431.59375 353.246094 434.328125 352.410156 437.082031 C 351.574219 439.835938 350.804688 442.613281 350.105469 445.40625 C 349.40625 448.199219 348.777344 451.007812 348.214844 453.832031 C 347.652344 456.65625 347.160156 459.492188 346.738281 462.339844 C 346.316406 465.1875 345.960938 468.046875 345.679688 470.910156 C 345.398438 473.777344 345.1875 476.648438 345.042969 479.523438 C 344.902344 482.402344 344.832031 485.277344 344.832031 488.160156 C 344.832031 491.039062 344.902344 493.917969 345.042969 496.792969 C 345.1875 499.667969 345.398438 502.539062 345.679688 505.40625 C 345.960938 508.269531 346.316406 511.128906 346.738281 513.976562 C 347.160156 516.824219 347.652344 519.660156 348.214844 522.484375 C 348.777344 525.308594 349.40625 528.117188 350.105469 530.910156 C 350.804688 533.703125 351.574219 536.480469 352.410156 539.234375 C 353.246094 541.992188 354.148438 544.722656 355.121094 547.433594 C 356.089844 550.148438 357.125 552.832031 358.230469 555.492188 C 359.332031 558.152344 360.496094 560.785156 361.730469 563.386719 C 362.960938 565.992188 364.253906 568.5625 365.613281 571.101562 C 366.96875 573.640625 368.390625 576.148438 369.871094 578.617188 C 371.351562 581.085938 372.890625 583.519531 374.492188 585.914062 C 376.089844 588.308594 377.75 590.660156 379.464844 592.972656 C 381.179688 595.285156 382.953125 597.554688 384.777344 599.78125 C 386.605469 602.007812 388.488281 604.1875 390.421875 606.320312 C 392.355469 608.457031 394.339844 610.539062 396.375 612.578125 C 398.414062 614.613281 400.5 616.597656 402.632812 618.53125 C 404.765625 620.464844 406.945312 622.34375 409.171875 624.171875 C 411.398438 626 413.667969 627.769531 415.980469 629.484375 C 418.296875 631.199219 420.648438 632.859375 423.042969 634.457031 C 425.4375 636.058594 427.871094 637.597656 430.339844 639.078125 C 432.8125 640.558594 435.316406 641.976562 437.855469 643.335938 C 440.398438 644.691406 442.96875 645.988281 445.574219 647.21875 C 448.175781 648.449219 450.808594 649.617188 453.46875 650.71875 C 456.128906 651.820312 458.816406 652.855469 461.527344 653.828125 C 464.238281 654.796875 466.972656 655.699219 469.730469 656.535156 C 472.484375 657.371094 475.261719 658.140625 478.054688 658.839844 C 480.847656 659.539062 483.65625 660.167969 486.480469 660.730469 C 489.304688 661.292969 492.144531 661.785156 494.992188 662.207031 C 497.839844 662.628906 500.699219 662.980469 503.566406 663.265625 C 506.429688 663.546875 509.300781 663.757812 512.179688 663.898438 C 515.054688 664.042969 517.933594 664.113281 520.8125 664.113281 C 523.695312 664.113281 526.574219 664.042969 529.449219 663.898438 C 532.324219 663.757812 535.195312 663.546875 538.0625 663.265625 C 540.929688 662.980469 543.785156 662.628906 546.636719 662.207031 C 549.484375 661.785156 552.320312 661.292969 555.144531 660.730469 C 557.972656 660.167969 560.78125 659.539062 563.574219 658.839844 C 566.367188 658.140625 569.144531 657.371094 571.898438 656.535156 C 574.65625 655.699219 577.386719 654.796875 580.101562 653.828125 C 582.8125 652.855469 585.5 651.820312 588.160156 650.71875 C 590.820312 649.617188 593.453125 648.449219 596.054688 647.21875 C 598.660156 645.988281 601.230469 644.691406 603.769531 643.335938 C 606.3125 641.976562 608.816406 640.558594 611.285156 639.078125 C 613.757812 637.597656 616.1875 636.058594 618.582031 634.457031 C 620.980469 632.859375 623.332031 631.199219 625.644531 629.484375 C 627.960938 627.769531 630.230469 626 632.457031 624.171875 C 634.679688 622.34375 636.863281 620.464844 638.996094 618.53125 C 641.128906 616.597656 643.214844 614.613281 645.25 612.578125 C 647.289062 610.539062 649.273438 608.457031 651.207031 606.320312 C 653.140625 604.1875 655.023438 602.007812 656.847656 599.78125 C 658.675781 597.554688 660.449219 595.285156 662.164062 592.972656 C 663.878906 590.660156 665.535156 588.308594 667.136719 585.914062 C 668.738281 583.519531 670.277344 581.085938 671.757812 578.617188 C 673.238281 576.148438 674.65625 573.640625 676.015625 571.101562 C 677.375 568.5625 678.667969 565.992188 679.898438 563.386719 C 681.128906 560.785156 682.296875 558.152344 683.398438 555.492188 C 684.5 552.832031 685.539062 550.148438 686.507812 547.433594 C 687.476562 544.722656 688.382812 541.992188 689.21875 539.234375 C 690.054688 536.480469 690.820312 533.703125 691.519531 530.910156 C 692.222656 528.117188 692.851562 525.308594 693.414062 522.484375 C 693.976562 519.660156 694.46875 516.824219 694.890625 513.976562 C 695.3125 511.128906 695.664062 508.269531 695.949219 505.40625 C 696.230469 502.539062 696.441406 499.667969 696.582031 496.792969 C 696.726562 493.914062 696.796875 491.039062 696.796875 488.160156 C 696.789062 485.28125 696.714844 482.402344 696.570312 479.527344 C 696.425781 476.652344 696.210938 473.785156 695.921875 470.921875 C 695.636719 468.054688 695.28125 465.199219 694.855469 462.355469 C 694.429688 459.507812 693.933594 456.671875 693.371094 453.851562 C 692.804688 451.027344 692.171875 448.222656 691.46875 445.429688 C 690.765625 442.636719 689.996094 439.867188 689.15625 437.113281 C 688.320312 434.359375 687.414062 431.628906 686.441406 428.917969 C 685.46875 426.207031 684.429688 423.523438 683.328125 420.867188 C 682.222656 418.207031 681.054688 415.578125 679.824219 412.976562 C 678.589844 410.375 677.292969 407.804688 675.9375 405.269531 C 674.578125 402.730469 673.15625 400.226562 671.675781 397.757812 C 670.195312 395.292969 668.65625 392.859375 667.054688 390.46875 C 665.453125 388.074219 663.796875 385.722656 662.082031 383.410156 C 660.363281 381.101562 658.59375 378.832031 656.765625 376.609375 C 654.941406 374.382812 653.058594 372.203125 651.125 370.070312 C 649.191406 367.9375 647.207031 365.855469 645.171875 363.820312 C 643.136719 361.785156 641.050781 359.800781 638.917969 357.867188 C 636.785156 355.933594 634.609375 354.054688 632.382812 352.226562 C 630.15625 350.402344 627.890625 348.628906 625.578125 346.914062 C 623.265625 345.199219 620.914062 343.542969 618.519531 341.941406 C 616.128906 340.339844 613.695312 338.800781 611.226562 337.320312 C 608.757812 335.839844 606.253906 334.417969 603.71875 333.0625 C 601.179688 331.703125 598.609375 330.40625 596.007812 329.175781 C 593.40625 327.941406 590.777344 326.773438 588.117188 325.671875 C 585.457031 324.566406 582.773438 323.53125 580.0625 322.558594 C 577.355469 321.585938 574.621094 320.679688 571.867188 319.84375 C 569.113281 319.003906 566.339844 318.234375 563.550781 317.53125 C 560.757812 316.828125 557.949219 316.195312 555.128906 315.628906 C 552.304688 315.066406 549.46875 314.570312 546.621094 314.144531 C 543.777344 313.71875 540.917969 313.363281 538.054688 313.078125 C 535.191406 312.789062 532.320312 312.574219 529.445312 312.429688 C 526.570312 312.285156 523.691406 312.210938 520.8125 312.207031 Z M 594.816406 426.441406 C 594.816406 427.179688 594.746094 427.914062 594.601562 428.640625 C 594.453125 429.367188 594.242188 430.070312 593.957031 430.753906 C 593.675781 431.441406 593.328125 432.089844 592.914062 432.707031 C 592.503906 433.320312 592.035156 433.890625 591.511719 434.414062 C 590.988281 434.9375 590.417969 435.40625 589.804688 435.816406 C 589.1875 436.230469 588.535156 436.578125 587.851562 436.859375 C 587.167969 437.144531 586.460938 437.355469 585.734375 437.5 C 585.011719 437.644531 584.277344 437.71875 583.535156 437.71875 C 582.792969 437.71875 582.0625 437.644531 581.335938 437.5 C 580.609375 437.355469 579.902344 437.144531 579.21875 436.859375 C 578.535156 436.578125 577.882812 436.230469 577.269531 435.816406 C 576.652344 435.40625 576.082031 434.9375 575.558594 434.414062 C 575.035156 433.890625 574.566406 433.320312 574.15625 432.707031 C 573.746094 432.089844 573.398438 431.441406 573.113281 430.753906 C 572.828125 430.070312 572.617188 429.367188 572.472656 428.640625 C 572.328125 427.914062 572.253906 427.179688 572.253906 426.441406 L 572.253906 413.355469 C 572.195312 412.316406 572.089844 411.285156 571.929688 410.253906 C 571.773438 409.226562 571.5625 408.210938 571.304688 407.203125 C 571.046875 406.195312 570.742188 405.199219 570.386719 404.222656 C 570.03125 403.246094 569.628906 402.285156 569.179688 401.347656 C 568.730469 400.410156 568.238281 399.496094 567.699219 398.605469 C 567.160156 397.714844 566.582031 396.851562 565.957031 396.019531 C 565.335938 395.183594 564.671875 394.382812 563.972656 393.613281 C 563.273438 392.84375 562.535156 392.113281 561.761719 391.414062 C 560.992188 390.71875 560.1875 390.058594 559.351562 389.441406 C 558.511719 388.824219 557.648438 388.246094 556.753906 387.710938 C 555.863281 387.179688 554.945312 386.6875 554.003906 386.246094 C 553.0625 385.800781 552.105469 385.402344 551.125 385.050781 C 550.144531 384.703125 549.148438 384.398438 548.140625 384.144531 C 547.132812 383.890625 546.113281 383.6875 545.082031 383.535156 C 544.054688 383.382812 543.019531 383.277344 541.980469 383.222656 C 540.941406 383.171875 539.902344 383.167969 538.863281 383.21875 L 534.800781 383.21875 L 534.800781 480.21875 L 561.246094 489.242188 C 561.902344 489.488281 562.535156 489.789062 563.140625 490.144531 C 583.898438 502.234375 594.816406 517.214844 594.816406 532.824219 L 594.816406 561.066406 C 594.769531 562.847656 594.636719 564.621094 594.414062 566.390625 C 594.191406 568.15625 593.882812 569.910156 593.488281 571.648438 C 593.09375 573.386719 592.613281 575.097656 592.050781 576.789062 C 591.488281 578.480469 590.839844 580.136719 590.113281 581.761719 C 589.386719 583.390625 588.578125 584.976562 587.695312 586.523438 C 586.8125 588.070312 585.851562 589.570312 584.820312 591.023438 C 583.789062 592.472656 582.6875 593.871094 581.515625 595.214844 C 580.34375 596.558594 579.109375 597.839844 577.8125 599.0625 C 576.515625 600.285156 575.164062 601.4375 573.75 602.527344 C 572.339844 603.613281 570.878906 604.632812 569.367188 605.574219 C 567.855469 606.519531 566.300781 607.386719 564.703125 608.175781 C 563.105469 608.964844 561.476562 609.675781 559.808594 610.304688 C 558.140625 610.933594 556.445312 611.480469 554.726562 611.941406 C 553.003906 612.402344 551.265625 612.78125 549.507812 613.070312 C 547.75 613.359375 545.980469 613.5625 544.203125 613.679688 C 542.425781 613.792969 540.644531 613.820312 538.863281 613.761719 L 534.800781 613.761719 L 534.800781 622.785156 C 534.800781 623.527344 534.730469 624.257812 534.585938 624.984375 C 534.441406 625.710938 534.226562 626.417969 533.945312 627.101562 C 533.660156 627.785156 533.3125 628.4375 532.902344 629.050781 C 532.488281 629.667969 532.023438 630.238281 531.5 630.761719 C 530.972656 631.285156 530.40625 631.753906 529.789062 632.164062 C 529.171875 632.574219 528.523438 632.921875 527.839844 633.207031 C 527.152344 633.488281 526.449219 633.703125 525.722656 633.847656 C 524.996094 633.992188 524.261719 634.0625 523.519531 634.0625 C 522.78125 634.0625 522.046875 633.992188 521.320312 633.847656 C 520.59375 633.703125 519.890625 633.488281 519.203125 633.207031 C 518.519531 632.921875 517.871094 632.574219 517.253906 632.164062 C 516.636719 631.753906 516.070312 631.285156 515.542969 630.761719 C 515.019531 630.238281 514.554688 629.667969 514.140625 629.050781 C 513.730469 628.4375 513.382812 627.785156 513.097656 627.101562 C 512.816406 626.417969 512.601562 625.710938 512.457031 624.984375 C 512.3125 624.257812 512.242188 623.527344 512.242188 622.785156 L 512.242188 613.761719 L 503.214844 613.761719 C 501.429688 613.839844 499.648438 613.832031 497.863281 613.730469 C 496.078125 613.632812 494.304688 613.449219 492.539062 613.175781 C 490.773438 612.902344 489.027344 612.539062 487.296875 612.09375 C 485.566406 611.648438 483.863281 611.117188 482.1875 610.5 C 480.511719 609.886719 478.867188 609.1875 477.257812 608.410156 C 475.652344 607.632812 474.085938 606.777344 472.5625 605.84375 C 471.039062 604.910156 469.566406 603.90625 468.140625 602.828125 C 466.71875 601.75 465.351562 600.601562 464.039062 599.386719 C 462.730469 598.175781 461.480469 596.898438 460.296875 595.5625 C 459.113281 594.222656 458 592.832031 456.953125 591.382812 C 455.90625 589.9375 454.933594 588.441406 454.035156 586.898438 C 453.136719 585.351562 452.316406 583.769531 451.578125 582.144531 C 450.835938 580.519531 450.175781 578.859375 449.597656 577.171875 C 449.019531 575.480469 448.527344 573.765625 448.121094 572.027344 C 447.714844 570.285156 447.394531 568.53125 447.160156 566.761719 C 446.925781 564.992188 446.78125 563.210938 446.722656 561.425781 L 446.722656 548.253906 C 446.722656 547.511719 446.792969 546.777344 446.9375 546.054688 C 447.082031 545.328125 447.296875 544.621094 447.582031 543.9375 C 447.863281 543.253906 448.210938 542.601562 448.621094 541.988281 C 449.035156 541.371094 449.5 540.800781 450.027344 540.277344 C 450.550781 539.753906 451.117188 539.285156 451.734375 538.875 C 452.351562 538.464844 453 538.117188 453.683594 537.832031 C 454.371094 537.550781 455.074219 537.335938 455.800781 537.191406 C 456.527344 537.046875 457.261719 536.972656 458.003906 536.972656 C 458.742188 536.972656 459.476562 537.046875 460.203125 537.191406 C 460.929688 537.335938 461.636719 537.550781 462.320312 537.832031 C 463.003906 538.117188 463.652344 538.464844 464.269531 538.875 C 464.886719 539.285156 465.457031 539.753906 465.980469 540.277344 C 466.503906 540.800781 466.96875 541.371094 467.382812 541.988281 C 467.792969 542.601562 468.140625 543.253906 468.425781 543.9375 C 468.707031 544.621094 468.921875 545.328125 469.066406 546.054688 C 469.210938 546.777344 469.28125 547.511719 469.28125 548.253906 L 469.28125 561.425781 C 469.332031 562.476562 469.433594 563.519531 469.585938 564.5625 C 469.738281 565.601562 469.9375 566.628906 470.191406 567.648438 C 470.445312 568.667969 470.746094 569.675781 471.101562 570.664062 C 471.453125 571.652344 471.851562 572.625 472.300781 573.574219 C 472.746094 574.527344 473.238281 575.453125 473.777344 576.355469 C 474.316406 577.257812 474.898438 578.128906 475.523438 578.972656 C 476.148438 579.820312 476.8125 580.632812 477.519531 581.410156 C 478.222656 582.191406 478.964844 582.933594 479.742188 583.640625 C 480.519531 584.347656 481.328125 585.011719 482.171875 585.640625 C 483.015625 586.265625 483.886719 586.851562 484.789062 587.390625 C 485.691406 587.933594 486.613281 588.425781 487.566406 588.878906 C 488.515625 589.328125 489.484375 589.730469 490.472656 590.085938 C 491.460938 590.4375 492.464844 590.746094 493.484375 591 C 494.503906 591.257812 495.535156 591.460938 496.574219 591.617188 C 497.613281 591.769531 498.65625 591.875 499.707031 591.925781 C 500.757812 591.976562 501.804688 591.976562 502.855469 591.925781 L 511.878906 591.925781 L 511.878906 496.097656 L 479.300781 484.460938 L 477.316406 483.558594 C 457.191406 471.554688 446.722656 457.390625 446.722656 441.507812 L 446.722656 413.355469 C 446.769531 411.574219 446.902344 409.796875 447.125 408.027344 C 447.347656 406.257812 447.65625 404.503906 448.050781 402.761719 C 448.445312 401.023438 448.925781 399.308594 449.492188 397.617188 C 450.054688 395.925781 450.703125 394.265625 451.433594 392.636719 C 452.160156 391.007812 452.96875 389.421875 453.855469 387.871094 C 454.742188 386.324219 455.703125 384.824219 456.738281 383.371094 C 457.769531 381.917969 458.875 380.519531 460.046875 379.175781 C 461.21875 377.832031 462.457031 376.546875 463.757812 375.328125 C 465.054688 374.105469 466.410156 372.949219 467.824219 371.863281 C 469.238281 370.773438 470.703125 369.757812 472.21875 368.816406 C 473.730469 367.871094 475.289062 367.003906 476.886719 366.214844 C 478.488281 365.425781 480.121094 364.71875 481.792969 364.089844 C 483.460938 363.460938 485.160156 362.917969 486.882812 362.457031 C 488.605469 362 490.347656 361.625 492.109375 361.335938 C 493.871094 361.046875 495.640625 360.847656 497.421875 360.734375 C 499.199219 360.621094 500.980469 360.597656 502.765625 360.660156 L 511.789062 360.660156 L 511.789062 353.800781 C 511.789062 353.0625 511.863281 352.328125 512.007812 351.601562 C 512.152344 350.875 512.363281 350.171875 512.648438 349.484375 C 512.929688 348.800781 513.277344 348.152344 513.691406 347.535156 C 514.101562 346.921875 514.570312 346.351562 515.09375 345.828125 C 515.617188 345.304688 516.1875 344.835938 516.804688 344.425781 C 517.417969 344.011719 518.070312 343.664062 518.753906 343.382812 C 519.4375 343.097656 520.144531 342.882812 520.871094 342.738281 C 521.597656 342.59375 522.328125 342.523438 523.070312 342.523438 C 523.8125 342.523438 524.542969 342.59375 525.269531 342.738281 C 525.996094 342.882812 526.703125 343.097656 527.386719 343.382812 C 528.070312 343.664062 528.722656 344.011719 529.335938 344.425781 C 529.953125 344.835938 530.523438 345.304688 531.046875 345.828125 C 531.570312 346.351562 532.039062 346.921875 532.449219 347.535156 C 532.863281 348.152344 533.207031 348.800781 533.492188 349.484375 C 533.777344 350.171875 533.988281 350.875 534.132812 351.601562 C 534.277344 352.328125 534.351562 353.0625 534.351562 353.800781 L 534.351562 360.660156 L 538.414062 360.660156 C 540.191406 360.601562 541.972656 360.628906 543.75 360.742188 C 545.527344 360.859375 547.296875 361.0625 549.054688 361.351562 C 550.8125 361.640625 552.554688 362.019531 554.273438 362.480469 C 555.996094 362.941406 557.691406 363.488281 559.355469 364.117188 C 561.023438 364.746094 562.65625 365.457031 564.253906 366.246094 C 565.851562 367.035156 567.40625 367.902344 568.917969 368.847656 C 570.425781 369.792969 571.890625 370.808594 573.300781 371.894531 C 574.710938 372.984375 576.066406 374.136719 577.363281 375.359375 C 578.660156 376.582031 579.894531 377.863281 581.0625 379.207031 C 582.234375 380.550781 583.335938 381.949219 584.367188 383.398438 C 585.402344 384.851562 586.359375 386.351562 587.242188 387.898438 C 588.128906 389.445312 588.933594 391.03125 589.664062 392.660156 C 590.390625 394.285156 591.035156 395.941406 591.601562 397.632812 C 592.164062 399.324219 592.644531 401.035156 593.039062 402.773438 C 593.433594 404.511719 593.742188 406.265625 593.960938 408.03125 C 594.183594 409.800781 594.320312 411.574219 594.363281 413.355469 Z M 594.816406 426.441406 " fill-opacity="1" fill-rule="nonzero"/><path fill="#f2bf91" d="M 320.375 125.242188 C 321.136719 125.253906 321.890625 125.191406 322.636719 125.050781 C 323.382812 124.914062 324.109375 124.699219 324.8125 124.414062 C 325.515625 124.125 326.183594 123.773438 326.816406 123.351562 C 327.449219 122.929688 328.03125 122.449219 328.566406 121.910156 C 329.101562 121.371094 329.578125 120.785156 329.996094 120.148438 C 330.410156 119.511719 330.761719 118.839844 331.042969 118.136719 C 331.324219 117.429688 331.53125 116.703125 331.664062 115.953125 C 331.796875 115.207031 331.855469 114.453125 331.835938 113.695312 L 331.835938 104.671875 C 331.835938 81.390625 307.289062 63.074219 275.882812 63.074219 L 271.914062 63.074219 L 271.914062 61.179688 C 271.914062 60.4375 271.839844 59.703125 271.695312 58.976562 C 271.550781 58.25 271.339844 57.546875 271.054688 56.863281 C 270.769531 56.179688 270.425781 55.527344 270.011719 54.910156 C 269.601562 54.296875 269.132812 53.726562 268.609375 53.203125 C 268.085938 52.679688 267.515625 52.210938 266.898438 51.800781 C 266.285156 51.390625 265.632812 51.042969 264.949219 50.757812 C 264.265625 50.472656 263.558594 50.261719 262.832031 50.117188 C 262.105469 49.972656 261.375 49.898438 260.632812 49.898438 C 259.890625 49.898438 259.160156 49.972656 258.433594 50.117188 C 257.707031 50.261719 257 50.472656 256.316406 50.757812 C 255.632812 51.042969 254.980469 51.390625 254.367188 51.800781 C 253.75 52.210938 253.179688 52.679688 252.65625 53.203125 C 252.132812 53.726562 251.664062 54.296875 251.253906 54.910156 C 250.839844 55.527344 250.492188 56.179688 250.210938 56.863281 C 249.925781 57.546875 249.714844 58.25 249.570312 58.976562 C 249.425781 59.703125 249.351562 60.4375 249.351562 61.179688 L 249.351562 63.074219 L 239.875 63.074219 C 208.46875 63.074219 183.921875 81.121094 183.921875 104.671875 L 183.921875 125.242188 C 183.921875 145.367188 208.019531 155.742188 216.050781 159.171875 C 216.527344 159.445312 217.039062 159.628906 217.585938 159.710938 L 249.351562 168.011719 L 249.351562 231.71875 L 239.875 231.71875 C 220.203125 231.71875 206.484375 221.703125 206.484375 212.769531 L 206.484375 202.84375 C 206.484375 202.101562 206.414062 201.371094 206.269531 200.644531 C 206.125 199.917969 205.910156 199.210938 205.625 198.527344 C 205.34375 197.84375 204.996094 197.191406 204.582031 196.578125 C 204.171875 195.960938 203.703125 195.390625 203.179688 194.867188 C 202.65625 194.34375 202.085938 193.875 201.472656 193.464844 C 200.855469 193.054688 200.203125 192.707031 199.519531 192.421875 C 198.835938 192.140625 198.132812 191.925781 197.40625 191.78125 C 196.679688 191.636719 195.945312 191.5625 195.203125 191.5625 C 194.464844 191.5625 193.730469 191.636719 193.003906 191.78125 C 192.277344 191.925781 191.570312 192.140625 190.886719 192.421875 C 190.203125 192.707031 189.550781 193.054688 188.9375 193.464844 C 188.320312 193.875 187.75 194.34375 187.226562 194.867188 C 186.703125 195.390625 186.234375 195.960938 185.824219 196.578125 C 185.414062 197.191406 185.066406 197.84375 184.78125 198.527344 C 184.5 199.210938 184.285156 199.917969 184.140625 200.644531 C 183.996094 201.371094 183.921875 202.101562 183.921875 202.84375 L 183.921875 212.949219 C 183.921875 236.230469 208.46875 254.457031 239.875 254.457031 L 249.351562 254.457031 L 249.351562 257.703125 C 249.351562 258.445312 249.425781 259.179688 249.570312 259.90625 C 249.714844 260.632812 249.925781 261.335938 250.210938 262.019531 C 250.492188 262.707031 250.839844 263.355469 251.253906 263.972656 C 251.664062 264.585938 252.132812 265.15625 252.65625 265.679688 C 253.179688 266.203125 253.75 266.671875 254.367188 267.082031 C 254.980469 267.496094 255.632812 267.839844 256.316406 268.125 C 257 268.410156 257.707031 268.621094 258.433594 268.765625 C 259.160156 268.910156 259.890625 268.984375 260.632812 268.984375 C 261.375 268.984375 262.105469 268.910156 262.832031 268.765625 C 263.558594 268.621094 264.265625 268.410156 264.949219 268.125 C 265.632812 267.839844 266.285156 267.496094 266.898438 267.082031 C 267.515625 266.671875 268.085938 266.203125 268.609375 265.679688 C 269.132812 265.15625 269.601562 264.585938 270.011719 263.972656 C 270.421875 263.355469 270.769531 262.707031 271.054688 262.019531 C 271.339844 261.335938 271.550781 260.632812 271.695312 259.90625 C 271.839844 259.179688 271.914062 258.445312 271.914062 257.703125 L 271.914062 254.457031 L 275.882812 254.457031 C 307.289062 254.457031 331.835938 236.410156 331.835938 212.949219 L 331.835938 191.835938 C 331.835938 178.390625 320.738281 166.75 298.898438 157.457031 C 298.417969 157.179688 297.910156 157 297.363281 156.914062 L 271.914062 150.238281 L 271.914062 85.359375 L 275.882812 85.359375 C 295.558594 85.359375 309.277344 95.375 309.277344 104.398438 L 309.277344 113.695312 C 309.257812 114.4375 309.3125 115.175781 309.441406 115.910156 C 309.570312 116.644531 309.769531 117.359375 310.039062 118.050781 C 310.308594 118.746094 310.644531 119.40625 311.042969 120.035156 C 311.445312 120.660156 311.902344 121.242188 312.417969 121.78125 C 312.933594 122.316406 313.5 122.800781 314.109375 123.222656 C 314.722656 123.648438 315.367188 124.011719 316.050781 124.308594 C 316.734375 124.605469 317.4375 124.832031 318.167969 124.988281 C 318.894531 125.148438 319.632812 125.230469 320.375 125.242188 Z M 290.59375 178.480469 C 305.757812 185.15625 309.09375 190.84375 309.09375 191.835938 L 309.09375 212.949219 C 309.09375 221.972656 295.378906 231.898438 275.703125 231.898438 L 271.734375 231.898438 L 271.734375 173.609375 Z M 249.351562 144.371094 L 224.171875 137.875 C 209.644531 131.46875 206.125 126.417969 206.125 124.972656 L 206.125 104.671875 C 206.125 95.648438 219.839844 85.632812 239.515625 85.632812 L 248.992188 85.632812 Z M 249.351562 144.371094 " fill-opacity="1" fill-rule="nonzero"/></svg>