<svg xmlns="http://www.w3.org/2000/svg" xmlns:xlink="http://www.w3.org/1999/xlink" width="1024" zoomAndPan="magnify" viewBox="0 0 768 767.999994" height="1024" preserveAspectRatio="xMidYMid meet" version="1.0"><defs><clipPath id="ac712dd3e5"><path d="M 67.679688 0 L 700.679688 0 L 700.679688 768 L 67.679688 768 Z M 67.679688 0 " clip-rule="nonzero"/></clipPath></defs><path fill="#f2bf91" d="M 218.90625 373.085938 C 218.90625 375.589844 216.867188 377.636719 214.363281 377.636719 L 174.835938 377.636719 C 172.332031 377.636719 170.292969 375.589844 170.292969 373.085938 L 170.292969 333.601562 C 170.292969 331.09375 172.332031 329.054688 174.835938 329.054688 L 214.363281 329.054688 C 216.867188 329.054688 218.90625 331.09375 218.90625 333.601562 Z M 214.363281 312.460938 L 174.835938 312.460938 C 163.171875 312.460938 153.691406 321.941406 153.691406 333.601562 L 153.691406 373.085938 C 153.691406 384.746094 163.171875 394.226562 174.835938 394.226562 L 214.363281 394.226562 C 226.023438 394.226562 235.507812 384.746094 235.507812 373.085938 L 235.507812 333.601562 C 235.507812 321.941406 226.023438 312.460938 214.363281 312.460938 " fill-opacity="1" fill-rule="nonzero"/><path fill="#f2bf91" d="M 274.851562 345.046875 C 270.269531 345.046875 266.554688 348.761719 266.554688 353.339844 C 266.554688 357.921875 270.269531 361.636719 274.851562 361.636719 L 549.488281 361.636719 C 554.078125 361.636719 557.789062 357.921875 557.789062 353.339844 C 557.789062 348.761719 554.078125 345.046875 549.488281 345.046875 L 274.851562 345.046875 " fill-opacity="1" fill-rule="nonzero"/><path fill="#f2bf91" d="M 218.90625 498.425781 C 218.90625 500.929688 216.867188 502.976562 214.363281 502.976562 L 174.835938 502.976562 C 172.332031 502.976562 170.292969 500.929688 170.292969 498.425781 L 170.292969 458.9375 C 170.292969 456.429688 172.332031 454.386719 174.835938 454.386719 L 214.363281 454.386719 C 216.867188 454.386719 218.90625 456.429688 218.90625 458.9375 Z M 214.363281 437.792969 L 174.835938 437.792969 C 163.171875 437.792969 153.691406 447.273438 153.691406 458.9375 L 153.691406 498.425781 C 153.691406 510.082031 163.171875 519.566406 174.835938 519.566406 L 214.363281 519.566406 C 226.023438 519.566406 235.507812 510.082031 235.507812 498.425781 L 235.507812 458.9375 C 235.507812 447.273438 226.023438 437.792969 214.363281 437.792969 " fill-opacity="1" fill-rule="nonzero"/><path fill="#f2bf91" d="M 549.488281 470.382812 L 274.851562 470.382812 C 270.269531 470.382812 266.554688 474.09375 266.554688 478.671875 C 266.554688 483.257812 270.269531 486.972656 274.851562 486.972656 L 549.488281 486.972656 C 554.078125 486.972656 557.789062 483.257812 557.789062 478.671875 C 557.789062 474.09375 554.078125 470.382812 549.488281 470.382812 " fill-opacity="1" fill-rule="nonzero"/><path fill="#f2bf91" d="M 218.90625 623.761719 C 218.90625 626.269531 216.867188 628.308594 214.363281 628.308594 L 174.835938 628.308594 C 172.332031 628.308594 170.292969 626.269531 170.292969 623.761719 L 170.292969 584.269531 C 170.292969 581.761719 172.332031 579.71875 174.835938 579.71875 L 214.363281 579.71875 C 216.867188 579.71875 218.90625 581.761719 218.90625 584.269531 Z M 214.363281 563.125 L 174.835938 563.125 C 163.171875 563.125 153.691406 572.609375 153.691406 584.269531 L 153.691406 623.761719 C 153.691406 635.421875 163.171875 644.902344 174.835938 644.902344 L 214.363281 644.902344 C 226.023438 644.902344 235.507812 635.421875 235.507812 623.761719 L 235.507812 584.269531 C 235.507812 572.609375 226.023438 563.125 214.363281 563.125 " fill-opacity="1" fill-rule="nonzero"/><path fill="#f2bf91" d="M 549.488281 595.710938 L 274.851562 595.710938 C 270.269531 595.710938 266.554688 599.425781 266.554688 604.007812 C 266.554688 608.589844 270.269531 612.304688 274.851562 612.304688 L 549.488281 612.304688 C 554.078125 612.304688 557.789062 608.589844 557.789062 604.007812 C 557.789062 599.425781 554.078125 595.710938 549.488281 595.710938 " fill-opacity="1" fill-rule="nonzero"/><g clip-path="url(#ac712dd3e5)"><path fill="#f2bf91" d="M 567.335938 241.570312 C 562.597656 248.621094 555.082031 253.3125 546.675781 254.480469 C 545.3125 254.675781 543.949219 254.761719 542.574219 254.761719 C 535.550781 254.761719 528.703125 252.289062 523.28125 247.6875 L 445.714844 181.863281 C 433.164062 171.210938 431.632812 152.414062 442.277344 139.871094 C 452.941406 127.351562 471.742188 125.789062 484.296875 136.445312 L 536.417969 180.675781 L 606.191406 76.738281 C 615.351562 63.070312 633.867188 59.425781 647.546875 68.59375 C 661.214844 77.757812 664.863281 96.261719 655.695312 109.917969 Z M 610.578125 680.398438 C 610.578125 710.191406 586.328125 734.421875 556.53125 734.421875 L 154.976562 734.421875 C 125.167969 734.421875 100.914062 710.191406 100.914062 680.398438 L 100.914062 281.976562 L 107.792969 275.097656 L 186.257812 275.097656 C 225.292969 275.097656 256.929688 243.480469 256.929688 204.46875 L 256.929688 126.046875 L 263.808594 119.175781 L 401.828125 119.175781 C 399.550781 129.597656 398.269531 140.402344 398.269531 151.511719 C 398.269531 234.992188 465.976562 302.648438 549.488281 302.648438 C 571.25 302.648438 591.886719 297.976562 610.578125 289.707031 Z M 700.714844 151.511719 C 700.714844 68.046875 633.027344 0.378906 549.488281 0.378906 C 489.507812 0.378906 437.820312 35.378906 413.386719 85.980469 L 256.929688 85.980469 C 252.523438 85.980469 248.300781 87.730469 245.191406 90.84375 L 72.566406 263.367188 C 69.453125 266.476562 67.699219 270.699219 67.699219 275.097656 L 67.699219 680.398438 C 67.699219 728.488281 106.851562 767.613281 154.976562 767.613281 L 556.53125 767.613281 C 604.640625 767.613281 643.78125 728.488281 643.78125 680.398438 L 643.78125 269.566406 C 678.449219 241.871094 700.714844 199.324219 700.714844 151.511719 " fill-opacity="1" fill-rule="nonzero"/></g></svg>