<svg xmlns="http://www.w3.org/2000/svg" xmlns:xlink="http://www.w3.org/1999/xlink" width="500" zoomAndPan="magnify" viewBox="0 0 375 374.999991" height="500" preserveAspectRatio="xMidYMid meet" version="1.0"><defs><g/><clipPath id="4e9ce150ee"><path d="M 139.4375 111.171875 L 235.4375 111.171875 L 235.4375 206.421875 L 139.4375 206.421875 Z M 139.4375 111.171875 " clip-rule="nonzero"/></clipPath><clipPath id="28999f9c68"><path d="M 161.910156 111.171875 L 212.96875 111.171875 C 225.378906 111.171875 235.4375 121.265625 235.4375 133.714844 L 235.4375 183.878906 C 235.4375 196.328125 225.378906 206.417969 212.96875 206.417969 L 161.910156 206.417969 C 149.5 206.417969 139.4375 196.328125 139.4375 183.878906 L 139.4375 133.714844 C 139.4375 121.265625 149.5 111.171875 161.910156 111.171875 " clip-rule="nonzero"/></clipPath><clipPath id="5831bc287c"><path d="M 139.4375 130.777344 L 235.4375 130.777344 L 235.4375 206.523438 L 139.4375 206.523438 Z M 139.4375 130.777344 " clip-rule="nonzero"/></clipPath><clipPath id="c262fdee8a"><path d="M 161.910156 130.777344 L 212.96875 130.777344 C 225.378906 130.777344 235.4375 140.886719 235.4375 153.359375 L 235.4375 183.941406 C 235.4375 196.414062 225.378906 206.523438 212.96875 206.523438 L 161.910156 206.523438 C 149.5 206.523438 139.4375 196.414062 139.4375 183.941406 L 139.4375 153.359375 C 139.4375 140.886719 149.5 130.777344 161.910156 130.777344 " clip-rule="nonzero"/></clipPath><clipPath id="9964d86be4"><path d="M 168.324219 150.320312 L 206.574219 150.320312 L 206.574219 169.492188 L 168.324219 169.492188 Z M 168.324219 150.320312 " clip-rule="nonzero"/></clipPath></defs><rect x="-37.5" width="450" fill="#ffffff" y="-37.499999" height="449.999989" fill-opacity="1"/><rect x="-37.5" width="450" fill="#ffffff" y="-37.499999" height="449.999989" fill-opacity="1"/><rect x="-37.5" width="450" fill="#ffffff" y="-37.499999" height="449.999989" fill-opacity="1"/><g clip-path="url(#4e9ce150ee)"><g clip-path="url(#28999f9c68)"><path stroke-linecap="butt" transform="matrix(0.749086, 0, 0, 0.751387, 139.438107, 111.173453)" fill="none" stroke-linejoin="miter" d="M 29.999309 -0.00209972 L 98.160539 -0.00209972 C 114.727613 -0.00209972 128.155443 13.431397 128.155443 29.999724 L 128.155443 96.761709 C 128.155443 113.330035 114.727613 126.758333 98.160539 126.758333 L 29.999309 126.758333 C 13.432235 126.758333 -0.000809712 113.330035 -0.000809712 96.761709 L -0.000809712 29.999724 C -0.000809712 13.431397 13.432235 -0.00209972 29.999309 -0.00209972 " stroke="#1d736a" stroke-width="30" stroke-opacity="1" stroke-miterlimit="4"/></g></g><g clip-path="url(#5831bc287c)"><g clip-path="url(#c262fdee8a)"><path stroke-linecap="butt" transform="matrix(0.749086, 0, 0, 0.752795, 139.438107, 130.775603)" fill="none" stroke-linejoin="miter" d="M 29.999309 0.0023129 L 98.160539 0.0023129 C 114.727613 0.0023129 128.155443 13.431434 128.155443 29.999897 L 128.155443 70.624545 C 128.155443 87.193008 114.727613 100.622129 98.160539 100.622129 L 29.999309 100.622129 C 13.432235 100.622129 -0.000809712 87.193008 -0.000809712 70.624545 L -0.000809712 29.999897 C -0.000809712 13.431434 13.432235 0.0023129 29.999309 0.0023129 " stroke="#3bbfa7" stroke-width="30" stroke-opacity="1" stroke-miterlimit="4"/></g></g><g clip-path="url(#9964d86be4)"><path fill="#d9667b" d="M 179.183594 149.992188 L 168.324219 149.992188 C 168.324219 160.761719 176.890625 169.492188 187.449219 169.492188 C 198.011719 169.492188 206.574219 160.761719 206.574219 149.992188 L 195.722656 149.992188 C 195.699219 154.625 192.003906 158.375 187.449219 158.375 C 182.898438 158.375 179.207031 154.625 179.183594 149.992188 Z M 179.183594 149.992188 " fill-opacity="1" fill-rule="nonzero"/></g><g fill="#d9667b" fill-opacity="1"><g transform="translate(125.02148, 253.578439)"><g><path d="M 10.078125 -6 L 18.84375 -6 L 18.84375 0 L 2.234375 0 L 2.234375 -28.203125 L 10.078125 -28.203125 Z M 10.078125 -6 "/></g></g></g><g fill="#d9667b" fill-opacity="1"><g transform="translate(144.659529, 253.578439)"><g><path d="M 6.203125 -24.515625 C 4.816406 -24.515625 3.703125 -24.894531 2.859375 -25.65625 C 2.015625 -26.414062 1.59375 -27.367188 1.59375 -28.515625 C 1.59375 -29.691406 2.015625 -30.664062 2.859375 -31.4375 C 3.703125 -32.207031 4.816406 -32.59375 6.203125 -32.59375 C 7.554688 -32.59375 8.65625 -32.207031 9.5 -31.4375 C 10.34375 -30.664062 10.765625 -29.691406 10.765625 -28.515625 C 10.765625 -27.367188 10.34375 -26.414062 9.5 -25.65625 C 8.65625 -24.894531 7.554688 -24.515625 6.203125 -24.515625 Z M 10.078125 -22.4375 L 10.078125 0 L 2.234375 0 L 2.234375 -22.4375 Z M 10.078125 -22.4375 "/></g></g></g><g fill="#d9667b" fill-opacity="1"><g transform="translate(156.978304, 253.578439)"><g><path d="M 11.796875 0.28125 C 9.773438 0.28125 7.96875 -0.0546875 6.375 -0.734375 C 4.789062 -1.421875 3.535156 -2.351562 2.609375 -3.53125 C 1.691406 -4.71875 1.179688 -6.0625 1.078125 -7.5625 L 8.6875 -7.5625 C 8.789062 -6.84375 9.117188 -6.28125 9.671875 -5.875 C 10.234375 -5.476562 10.929688 -5.28125 11.765625 -5.28125 C 12.398438 -5.28125 12.90625 -5.410156 13.28125 -5.671875 C 13.65625 -5.941406 13.84375 -6.289062 13.84375 -6.71875 C 13.84375 -7.28125 13.535156 -7.691406 12.921875 -7.953125 C 12.304688 -8.222656 11.289062 -8.519531 9.875 -8.84375 C 8.28125 -9.15625 6.945312 -9.507812 5.875 -9.90625 C 4.8125 -10.3125 3.882812 -10.96875 3.09375 -11.875 C 2.3125 -12.78125 1.921875 -14.007812 1.921875 -15.5625 C 1.921875 -16.894531 2.28125 -18.097656 3 -19.171875 C 3.71875 -20.253906 4.773438 -21.113281 6.171875 -21.75 C 7.578125 -22.394531 9.265625 -22.71875 11.234375 -22.71875 C 14.171875 -22.71875 16.476562 -22 18.15625 -20.5625 C 19.84375 -19.125 20.816406 -17.226562 21.078125 -14.875 L 14 -14.875 C 13.863281 -15.59375 13.546875 -16.144531 13.046875 -16.53125 C 12.554688 -16.925781 11.898438 -17.125 11.078125 -17.125 C 10.441406 -17.125 9.957031 -17.003906 9.625 -16.765625 C 9.289062 -16.523438 9.125 -16.191406 9.125 -15.765625 C 9.125 -15.222656 9.425781 -14.8125 10.03125 -14.53125 C 10.644531 -14.257812 11.632812 -13.976562 13 -13.6875 C 14.625 -13.332031 15.976562 -12.941406 17.0625 -12.515625 C 18.144531 -12.085938 19.09375 -11.398438 19.90625 -10.453125 C 20.71875 -9.515625 21.125 -8.226562 21.125 -6.59375 C 21.125 -5.289062 20.742188 -4.117188 19.984375 -3.078125 C 19.222656 -2.035156 18.140625 -1.210938 16.734375 -0.609375 C 15.335938 -0.015625 13.691406 0.28125 11.796875 0.28125 Z M 11.796875 0.28125 "/></g></g></g><g fill="#d9667b" fill-opacity="1"><g transform="translate(179.696049, 253.578439)"><g><path d="M 15.484375 -6.6875 L 15.484375 0 L 12.078125 0 C 6.347656 0 3.484375 -2.835938 3.484375 -8.515625 L 3.484375 -15.921875 L 0.71875 -15.921875 L 0.71875 -22.4375 L 3.484375 -22.4375 L 3.484375 -27.875 L 11.359375 -27.875 L 11.359375 -22.4375 L 15.4375 -22.4375 L 15.4375 -15.921875 L 11.359375 -15.921875 L 11.359375 -8.40625 C 11.359375 -7.789062 11.5 -7.347656 11.78125 -7.078125 C 12.0625 -6.816406 12.535156 -6.6875 13.203125 -6.6875 Z M 15.484375 -6.6875 "/></g></g></g><g fill="#d9667b" fill-opacity="1"><g transform="translate(196.534381, 253.578439)"><g><path d="M 6.203125 -24.515625 C 4.816406 -24.515625 3.703125 -24.894531 2.859375 -25.65625 C 2.015625 -26.414062 1.59375 -27.367188 1.59375 -28.515625 C 1.59375 -29.691406 2.015625 -30.664062 2.859375 -31.4375 C 3.703125 -32.207031 4.816406 -32.59375 6.203125 -32.59375 C 7.554688 -32.59375 8.65625 -32.207031 9.5 -31.4375 C 10.34375 -30.664062 10.765625 -29.691406 10.765625 -28.515625 C 10.765625 -27.367188 10.34375 -26.414062 9.5 -25.65625 C 8.65625 -24.894531 7.554688 -24.515625 6.203125 -24.515625 Z M 10.078125 -22.4375 L 10.078125 0 L 2.234375 0 L 2.234375 -22.4375 Z M 10.078125 -22.4375 "/></g></g></g><g fill="#d9667b" fill-opacity="1"><g transform="translate(208.853155, 253.578439)"><g><path d="M 14.359375 -15.921875 L 10.84375 -15.921875 L 10.84375 0 L 2.953125 0 L 2.953125 -15.921875 L 0.515625 -15.921875 L 0.515625 -22.4375 L 2.953125 -22.4375 L 2.953125 -22.640625 C 2.953125 -25.515625 3.800781 -27.71875 5.5 -29.25 C 7.195312 -30.789062 9.628906 -31.5625 12.796875 -31.5625 C 13.441406 -31.5625 13.9375 -31.546875 14.28125 -31.515625 L 14.28125 -24.84375 C 14.0625 -24.863281 13.769531 -24.875 13.40625 -24.875 C 12.550781 -24.875 11.921875 -24.679688 11.515625 -24.296875 C 11.117188 -23.910156 10.894531 -23.289062 10.84375 -22.4375 L 14.359375 -22.4375 Z M 14.359375 -15.921875 "/></g></g></g><g fill="#d9667b" fill-opacity="1"><g transform="translate(223.771672, 253.578439)"><g><path d="M 26.40625 -22.4375 L 12.15625 10.6875 L 3.640625 10.6875 L 9 -0.953125 L -0.203125 -22.4375 L 8.515625 -22.4375 L 13.234375 -9.71875 L 17.796875 -22.4375 Z M 26.40625 -22.4375 "/></g></g></g></svg>