<svg xmlns="http://www.w3.org/2000/svg" xmlns:xlink="http://www.w3.org/1999/xlink" width="1024" zoomAndPan="magnify" viewBox="0 0 768 767.999994" height="1024" preserveAspectRatio="xMidYMid meet" version="1.0"><defs><clipPath id="8ea0e4ed68"><path d="M 0 8.160156 L 204 8.160156 L 204 212 L 0 212 Z M 0 8.160156 " clip-rule="nonzero"/></clipPath><clipPath id="aca4276643"><path d="M 140 571 L 329 571 L 329 759.660156 L 140 759.660156 Z M 140 571 " clip-rule="nonzero"/></clipPath><clipPath id="fa821a71a8"><path d="M 578 571 L 767 571 L 767 759.660156 L 578 759.660156 Z M 578 571 " clip-rule="nonzero"/></clipPath></defs><path fill="#ffffff" d="M 697.332031 211.894531 L 297.1875 211.894531 C 279.898438 211.894531 265.90625 197.90625 265.90625 180.617188 C 265.90625 163.332031 279.898438 149.339844 297.1875 149.339844 L 735.152344 149.339844 C 744.5 149.339844 753.300781 153.496094 759.226562 160.703125 C 765.214844 167.851562 767.65625 177.320312 765.886719 186.480469 L 703.320312 514.878906 C 700.507812 529.597656 687.617188 540.289062 672.585938 540.289062 L 234.625 540.289062 C 219.59375 540.289062 206.699219 529.597656 203.890625 514.878906 L 141.324219 186.480469 C 138.085938 169.5 149.207031 153.128906 166.191406 149.890625 C 183.175781 146.652344 199.550781 157.769531 202.789062 174.753906 L 260.53125 477.738281 L 646.679688 477.738281 L 697.332031 211.894531 " fill-opacity="1" fill-rule="evenodd"/><g clip-path="url(#8ea0e4ed68)"><path fill="#ffffff" d="M 115.660156 71.152344 L 31.28125 71.152344 C 13.992188 71.152344 0 57.164062 0 39.875 C 0 22.589844 13.992188 8.601562 31.28125 8.601562 L 140.773438 8.601562 C 155.4375 8.601562 168.148438 18.800781 171.324219 33.097656 L 202.605469 173.835938 C 206.335938 190.695312 195.703125 207.433594 178.839844 211.160156 C 161.976562 214.886719 145.234375 204.257812 141.507812 187.398438 L 115.660156 71.152344 " fill-opacity="1" fill-rule="evenodd"/></g><g clip-path="url(#aca4276643)"><path fill="#ffffff" d="M 234.625 571.566406 C 182.8125 571.566406 140.773438 613.589844 140.773438 665.390625 C 140.773438 717.191406 182.8125 759.21875 234.625 759.21875 C 286.4375 759.21875 328.472656 717.191406 328.472656 665.390625 C 328.472656 613.589844 286.4375 571.566406 234.625 571.566406 Z M 234.625 634.117188 C 251.914062 634.117188 265.90625 648.105469 265.90625 665.390625 C 265.90625 682.679688 251.914062 696.667969 234.625 696.667969 C 217.332031 696.667969 203.339844 682.679688 203.339844 665.390625 C 203.339844 648.105469 217.332031 634.117188 234.625 634.117188 " fill-opacity="1" fill-rule="evenodd"/></g><g clip-path="url(#fa821a71a8)"><path fill="#ffffff" d="M 672.585938 571.566406 C 620.773438 571.566406 578.738281 613.589844 578.738281 665.390625 C 578.738281 717.191406 620.773438 759.21875 672.585938 759.21875 C 724.398438 759.21875 766.4375 717.191406 766.4375 665.390625 C 766.4375 613.589844 724.398438 571.566406 672.585938 571.566406 Z M 672.585938 634.117188 C 689.878906 634.117188 703.871094 648.105469 703.871094 665.390625 C 703.871094 682.679688 689.878906 696.667969 672.585938 696.667969 C 655.296875 696.667969 641.304688 682.679688 641.304688 665.390625 C 641.304688 648.105469 655.296875 634.117188 672.585938 634.117188 " fill-opacity="1" fill-rule="evenodd"/></g><path fill="#ffffff" d="M 271.160156 491.664062 L 208.59375 585.492188 C 199.003906 599.847656 202.914062 619.273438 217.269531 628.863281 C 231.628906 638.453125 251.058594 634.542969 260.652344 620.1875 L 323.21875 526.363281 C 332.8125 512.007812 328.898438 492.582031 314.542969 482.992188 C 300.183594 473.398438 280.753906 477.308594 271.160156 491.664062 " fill-opacity="1" fill-rule="evenodd"/><path fill="#ffffff" d="M 312.832031 696.667969 L 610.019531 696.667969 C 627.3125 696.667969 641.304688 682.679688 641.304688 665.390625 C 641.304688 648.105469 627.3125 634.117188 610.019531 634.117188 L 312.832031 634.117188 C 295.539062 634.117188 281.546875 648.105469 281.546875 665.390625 C 281.546875 682.679688 295.539062 696.667969 312.832031 696.667969 " fill-opacity="1" fill-rule="evenodd"/></svg>