<svg xmlns="http://www.w3.org/2000/svg" xmlns:xlink="http://www.w3.org/1999/xlink" width="1024" zoomAndPan="magnify" viewBox="0 0 768 767.999994" height="1024" preserveAspectRatio="xMidYMid meet" version="1.0"><path fill="#ffffff" d="M 405.300781 94.910156 C 392.402344 86.3125 375.597656 86.3125 362.699219 94.910156 L 93.898438 274.109375 C 83.214844 281.234375 76.800781 293.222656 76.800781 306.0625 L 76.800781 648.960938 C 76.800781 670.167969 93.992188 687.359375 115.199219 687.359375 L 230.398438 687.359375 L 230.398438 533.761719 C 230.398438 470.136719 281.976562 418.558594 345.601562 418.558594 L 422.398438 418.558594 C 486.023438 418.558594 537.601562 470.136719 537.601562 533.761719 L 537.601562 687.359375 L 652.800781 687.359375 C 674.007812 687.359375 691.199219 670.167969 691.199219 648.960938 L 691.199219 306.0625 C 691.199219 293.222656 684.785156 281.234375 674.101562 274.109375 Z M 320.097656 31.007812 C 358.792969 5.210938 409.207031 5.210938 447.902344 31.007812 L 716.703125 210.210938 C 748.75 231.574219 768 267.542969 768 306.0625 L 768 648.960938 C 768 712.582031 716.425781 764.160156 652.800781 764.160156 L 499.199219 764.160156 C 477.992188 764.160156 460.800781 746.96875 460.800781 725.761719 L 460.800781 533.761719 C 460.800781 512.550781 443.609375 495.359375 422.398438 495.359375 L 345.601562 495.359375 C 324.390625 495.359375 307.199219 512.550781 307.199219 533.761719 L 307.199219 725.761719 C 307.199219 746.96875 290.007812 764.160156 268.800781 764.160156 L 115.199219 764.160156 C 51.578125 764.160156 0 712.582031 0 648.960938 L 0 306.0625 C 0 267.542969 19.25 231.574219 51.296875 210.210938 Z M 320.097656 31.007812 " fill-opacity="1" fill-rule="evenodd"/></svg>