<svg xmlns="http://www.w3.org/2000/svg" xmlns:xlink="http://www.w3.org/1999/xlink" width="1024" zoomAndPan="magnify" viewBox="0 0 768 767.999994" height="1024" preserveAspectRatio="xMidYMid meet" version="1.0"><path fill="#ffffff" d="M 175.648438 387.289062 C 175.628906 386.722656 175.609375 386.152344 175.585938 385.578125 C 169.539062 230.894531 301.832031 115.914062 437.761719 115.914062 C 573.691406 115.914062 703.40625 222.996094 703.40625 385.578125 C 703.40625 460.804688 668.457031 531.484375 622.378906 576.746094 C 568.875 629.300781 499.648438 650.5 441.292969 650.5 C 332.683594 650.5 257.441406 573.769531 257.441406 573.769531 L 209.097656 619.203125 C 209.097656 619.203125 257.933594 662.566406 298.089844 681.136719 C 338.246094 699.710938 350.003906 710.953125 437.761719 712.910156 C 513.128906 714.59375 583.480469 680.929688 629.226562 650.5 C 758 564.828125 768 442.484375 768 386.425781 C 768 330.367188 756.824219 220.324219 649.59375 129.386719 C 599.449219 86.863281 534.222656 53.132812 431.578125 53.132812 C 335.851562 53.132812 263.039062 97.191406 215.550781 138.566406 C 103.234375 236.414062 107.8125 386.425781 107.8125 386.425781 C 107.8125 386.425781 107.957031 386.726562 108.234375 387.289062 L -0.0664062 387.289062 L 145.828125 537.8125 L 296.4375 387.289062 Z M 175.648438 387.289062 " fill-opacity="1" fill-rule="evenodd"/><path fill="#ffffff" d="M 407.996094 247.132812 L 407.996094 422.96875 L 564.332031 517.882812 L 590.921875 480.898438 L 459.472656 401.289062 L 459.472656 247.132812 Z M 407.996094 247.132812 " fill-opacity="1" fill-rule="evenodd"/></svg>