<svg xmlns="http://www.w3.org/2000/svg" xmlns:xlink="http://www.w3.org/1999/xlink" width="1024" zoomAndPan="magnify" viewBox="0 0 768 767.999994" height="1024" preserveAspectRatio="xMidYMid meet" version="1.0"><path fill="#ffffff" d="M 384 0 C 172.273438 0 0 172.273438 0 384 C 0 595.726562 172.273438 768 384 768 C 595.726562 768 768 595.726562 768 384 C 768 172.273438 595.726562 0 384 0 Z M 168.335938 641.304688 C 171.910156 525.3125 267.144531 432 384 432 C 500.855469 432 596.089844 525.3125 599.664062 641.304688 C 541.246094 690.335938 466.054688 720 384 720 C 301.945312 720 226.753906 690.335938 168.335938 641.304688 Z M 264 264 C 264 197.832031 317.832031 144 384 144 C 450.167969 144 504 197.832031 504 264 C 504 330.167969 450.167969 384 384 384 C 317.832031 384 264 330.167969 264 264 Z M 643.054688 597.71875 C 625.679688 508.007812 562.753906 434.566406 479.398438 402.097656 C 523.199219 371.761719 552 321.191406 552 264 C 552 171.382812 476.617188 96 384 96 C 291.382812 96 216 171.382812 216 264 C 216 321.191406 244.800781 371.761719 288.601562 402.121094 C 205.246094 434.59375 142.320312 508.03125 124.921875 597.742188 C 76.894531 539.617188 48 465.121094 48 384 C 48 198.71875 198.71875 48 384 48 C 569.28125 48 720 198.71875 720 384 C 720 465.121094 691.105469 539.617188 643.054688 597.71875 Z M 643.054688 597.71875 " fill-opacity="1" fill-rule="nonzero"/></svg>