<svg xmlns="http://www.w3.org/2000/svg" xmlns:xlink="http://www.w3.org/1999/xlink" width="1024" zoomAndPan="magnify" viewBox="0 0 768 767.999994" height="1024" preserveAspectRatio="xMidYMid meet" version="1.0"><path fill="#ffffff" d="M 542.957031 409.003906 C 557.753906 409.003906 569.75 421 569.75 435.796875 L 569.75 650.121094 C 569.75 664.917969 557.753906 676.910156 542.957031 676.910156 C 528.164062 676.910156 516.167969 664.917969 516.167969 650.121094 L 516.167969 435.796875 C 516.167969 421 528.164062 409.003906 542.957031 409.003906 Z M 542.957031 409.003906 " fill-opacity="1" fill-rule="evenodd"/><path fill="#ffffff" d="M 524.015625 416.851562 C 534.476562 406.390625 551.4375 406.390625 561.902344 416.851562 L 651.203125 506.15625 C 661.664062 516.617188 661.664062 533.578125 651.203125 544.039062 C 640.742188 554.503906 623.78125 554.503906 613.316406 544.039062 L 542.957031 473.683594 L 472.597656 544.039062 C 462.136719 554.503906 445.175781 554.503906 434.714844 544.039062 C 424.25 533.578125 424.25 516.617188 434.714844 506.15625 Z M 524.015625 416.851562 " fill-opacity="1" fill-rule="evenodd"/><path fill="#ffffff" d="M 96.445312 51.796875 C 71.785156 51.796875 51.796875 71.785156 51.796875 96.445312 L 51.796875 167.886719 C 51.796875 182.683594 39.800781 194.679688 25.003906 194.679688 C 10.207031 194.679688 -1.785156 182.683594 -1.785156 167.886719 L -1.785156 96.445312 C -1.785156 42.195312 42.195312 -1.785156 96.445312 -1.785156 L 300.84375 -1.785156 C 325.421875 -1.785156 349.105469 7.425781 367.222656 24.035156 L 537.894531 180.484375 C 558.191406 199.089844 569.75 225.363281 569.75 252.898438 L 569.75 257.191406 C 569.75 271.988281 557.753906 283.980469 542.957031 283.980469 C 528.164062 283.980469 516.167969 271.988281 516.167969 257.191406 L 516.167969 252.898438 C 516.167969 240.382812 510.914062 228.441406 501.691406 219.980469 L 331.015625 63.53125 L 348.644531 44.300781 L 331.015625 63.53125 C 322.78125 55.984375 312.015625 51.796875 300.84375 51.796875 Z M 25.003906 283.980469 C 39.800781 283.980469 51.796875 295.976562 51.796875 310.773438 L 51.796875 667.980469 C 51.796875 692.644531 71.785156 712.632812 96.445312 712.632812 L 292.910156 712.632812 C 307.707031 712.632812 319.703125 724.628906 319.703125 739.421875 C 319.703125 754.21875 307.707031 766.214844 292.910156 766.214844 L 96.445312 766.214844 C 42.195312 766.214844 -1.785156 722.234375 -1.785156 667.980469 L -1.785156 310.773438 C -1.785156 295.976562 10.207031 283.980469 25.003906 283.980469 Z M 25.003906 283.980469 " fill-opacity="1" fill-rule="evenodd"/><path fill="#ffffff" d="M 328.632812 16.074219 C 343.429688 16.074219 355.421875 28.070312 355.421875 42.863281 L 355.421875 150.027344 C 355.421875 174.6875 375.414062 194.679688 400.074219 194.679688 L 525.097656 194.679688 C 539.894531 194.679688 551.886719 206.671875 551.886719 221.46875 C 551.886719 236.265625 539.894531 248.261719 525.097656 248.261719 L 400.074219 248.261719 C 345.820312 248.261719 301.84375 204.28125 301.84375 150.027344 L 301.84375 42.863281 C 301.84375 28.070312 313.835938 16.074219 328.632812 16.074219 Z M 328.632812 16.074219 " fill-opacity="1" fill-rule="evenodd"/><path fill="#ffffff" d="M 542.957031 712.632812 C 449.246094 712.632812 373.285156 636.667969 373.285156 542.957031 C 373.285156 449.246094 449.246094 373.285156 542.957031 373.285156 C 636.667969 373.285156 712.632812 449.246094 712.632812 542.957031 C 712.632812 636.667969 636.667969 712.632812 542.957031 712.632812 Z M 319.703125 542.957031 C 319.703125 666.257812 419.65625 766.214844 542.957031 766.214844 C 666.257812 766.214844 766.214844 666.257812 766.214844 542.957031 C 766.214844 419.65625 666.257812 319.703125 542.957031 319.703125 C 419.65625 319.703125 319.703125 419.65625 319.703125 542.957031 Z M 319.703125 542.957031 " fill-opacity="1" fill-rule="evenodd"/></svg>